<?xml version="1.0" encoding="UTF-8" standalone="no"?>
<!-- Created with Inkscape (http://www.inkscape.org/) -->

<svg
   xmlns:dc="http://purl.org/dc/elements/1.1/"
   xmlns:cc="http://creativecommons.org/ns#"
   xmlns:rdf="http://www.w3.org/1999/02/22-rdf-syntax-ns#"
   xmlns:svg="http://www.w3.org/2000/svg"
   xmlns="http://www.w3.org/2000/svg"
   xmlns:xlink="http://www.w3.org/1999/xlink"
   xmlns:sodipodi="http://sodipodi.sourceforge.net/DTD/sodipodi-0.dtd"
   xmlns:inkscape="http://www.inkscape.org/namespaces/inkscape"
   width="48"
   height="48"
   id="svg2"
   version="1.1"
   inkscape:version="0.48.4 r9939"
   enable-background="new"
   sodipodi:docname="launcher.svg"
   inkscape:export-filename="/home/dave/git/Linkbasher/Linkbasher/src/main/res/drawable/_pre_production/launcher.png"
   inkscape:export-xdpi="960"
   inkscape:export-ydpi="960">
  <defs
     id="defs4">
    <linearGradient
       id="linearGradient3842">
      <stop
         style="stop-color:#14769a;stop-opacity:1;"
         offset="0"
         id="stop3844" />
      <stop
         style="stop-color:#33b5e5;stop-opacity:1;"
         offset="1"
         id="stop3846" />
    </linearGradient>
    <linearGradient
       inkscape:collect="always"
       xlink:href="#linearGradient3842"
       id="linearGradient3848"
       x1="4.0354274"
       y1="23.982278"
       x2="44"
       y2="23.982278"
       gradientUnits="userSpaceOnUse" />
    <linearGradient
       inkscape:collect="always"
       xlink:href="#linearGradient3842"
       id="linearGradient3866"
       gradientUnits="userSpaceOnUse"
       x1="4.0354274"
       y1="23.982278"
       x2="44"
       y2="23.982278"
       gradientTransform="translate(-8,996.3622)" />
    <linearGradient
       inkscape:collect="always"
       xlink:href="#linearGradient3842"
       id="linearGradient3939"
       gradientUnits="userSpaceOnUse"
       x1="4.0354274"
       y1="23.982278"
       x2="44"
       y2="23.982278" />
    <linearGradient
       inkscape:collect="always"
       xlink:href="#linearGradient3842"
       id="linearGradient3944"
       gradientUnits="userSpaceOnUse"
       x1="4.0354274"
       y1="23.982278"
       x2="44"
       y2="23.982278" />
    <linearGradient
       inkscape:collect="always"
       xlink:href="#linearGradient3842"
       id="linearGradient3965"
       gradientUnits="userSpaceOnUse"
       gradientTransform="translate(4,1000.3622)"
       x1="4.0354274"
       y1="23.982278"
       x2="44"
       y2="23.982278" />
    <linearGradient
       inkscape:collect="always"
       xlink:href="#linearGradient3842"
       id="linearGradient3967"
       gradientUnits="userSpaceOnUse"
       gradientTransform="translate(-32,1000.3622)"
       x1="4.0354274"
       y1="23.982278"
       x2="44"
       y2="23.982278" />
    <linearGradient
       inkscape:collect="always"
       xlink:href="#linearGradient3842"
       id="linearGradient3973"
       gradientUnits="userSpaceOnUse"
       gradientTransform="translate(-22,1001.3622)"
       x1="4.0354274"
       y1="23.982278"
       x2="44"
       y2="23.982278" />
    <linearGradient
       inkscape:collect="always"
       xlink:href="#linearGradient3842"
       id="linearGradient3975"
       gradientUnits="userSpaceOnUse"
       gradientTransform="translate(-32,1001.3622)"
       x1="4.0354274"
       y1="23.982278"
       x2="44"
       y2="23.982278" />
    <linearGradient
       inkscape:collect="always"
       xlink:href="#linearGradient3842"
       id="linearGradient3981"
       gradientUnits="userSpaceOnUse"
       gradientTransform="translate(-28,0)"
       x1="4.0354274"
       y1="23.982278"
       x2="44"
       y2="23.982278" />
    <linearGradient
       inkscape:collect="always"
       xlink:href="#linearGradient3842"
       id="linearGradient3983"
       gradientUnits="userSpaceOnUse"
       gradientTransform="translate(-38,0)"
       x1="4.0354274"
       y1="23.982278"
       x2="44"
       y2="23.982278" />
    <linearGradient
       inkscape:collect="always"
       xlink:href="#linearGradient3842"
       id="linearGradient3987"
       gradientUnits="userSpaceOnUse"
       gradientTransform="translate(-38,1005.3622)"
       x1="4.0354274"
       y1="23.982278"
       x2="44"
       y2="23.982278" />
    <linearGradient
       inkscape:collect="always"
       xlink:href="#linearGradient3842"
       id="linearGradient3992"
       gradientUnits="userSpaceOnUse"
       gradientTransform="translate(-28.035427,1005.3622)"
       x1="4.0354274"
       y1="23.982278"
       x2="44"
       y2="23.982278" />
    <clipPath
       clipPathUnits="userSpaceOnUse"
       id="clipPath4064">
      <path
         style="opacity:0.5;fill:#000000;fill-opacity:1;stroke:none"
         d="m 28,4 c -2.5,0 -5,1 -7,3 l -9,9 0,1 2,-1 3,2 -1,2 9,-9 c 2,-2 5,-1 6,0 1,1 2,4 0,6 l -8,8 0,3 3,-2 2,1 -1,2 8,-8 C 39,17 39,11 35,7 33,5 30.5,4 28,4 z m -8,14 -9,9 c -4,4 -3.9052429,10.0947 0,14 3.905243,3.9052 10,4 14,0 l 9,-9 1,-3 -2,1 -2,-1 0,-2 -10,10 c -2,2 -5,1 -6,0 -1,-1 -2,-4 0,-6 l 8,-8 1,-3 -1,-1 -3,1 0,-2 z"
         id="path4066"
         inkscape:connector-curvature="0" />
    </clipPath>
    <linearGradient
       inkscape:collect="always"
       xlink:href="#linearGradient3842"
       id="linearGradient3811"
       x1="24"
       y1="46"
       x2="24"
       y2="8"
       gradientUnits="userSpaceOnUse" />
    <filter
       inkscape:collect="always"
       id="filter3854">
      <feGaussianBlur
         inkscape:collect="always"
         stdDeviation="0.225"
         id="feGaussianBlur3856" />
    </filter>
  </defs>
  <sodipodi:namedview
     id="base"
     pagecolor="#353751"
     bordercolor="#666666"
     borderopacity="1.0"
     inkscape:pageopacity="0"
     inkscape:pageshadow="2"
     inkscape:zoom="16"
     inkscape:cx="14.14602"
     inkscape:cy="28.079415"
     inkscape:document-units="px"
     inkscape:current-layer="layer3"
     showgrid="true"
     objecttolerance="10000"
     guidetolerance="10000"
     inkscape:snap-global="true"
     inkscape:snap-page="true"
     inkscape:snap-bbox="true"
     showguides="true"
     inkscape:window-width="1920"
     inkscape:window-height="1023"
     inkscape:window-x="0"
     inkscape:window-y="33"
     inkscape:window-maximized="1"
     inkscape:guide-bbox="true">
    <inkscape:grid
       type="xygrid"
       id="grid2985"
       empspacing="8"
       visible="true"
       enabled="true"
       snapvisiblegridlinesonly="true" />
  </sodipodi:namedview>
  <metadata
     id="metadata7">
    <rdf:RDF>
      <cc:Work
         rdf:about="">
        <dc:format>image/svg+xml</dc:format>
        <dc:type
           rdf:resource="http://purl.org/dc/dcmitype/StillImage" />
        <dc:title />
      </cc:Work>
    </rdf:RDF>
  </metadata>
  <g
     inkscape:groupmode="layer"
     id="layer2"
     inkscape:label="Layer"
     style="display:inline">
    <path
       style="opacity:0.5;fill:none;stroke:#ffffff;stroke-width:0.5;stroke-miterlimit:4;stroke-opacity:1;stroke-dasharray:none"
       d="m 28,4 c -2.5,0 -5,1 -7,3 l -9,9 0,1 2,-1 3,2 -1,2 9,-9 c 2,-2 5,-1 6,0 1,1 2,4 0,6 l -8,8 0,3 3,-2 2,1 -1,2 8,-8 C 39,17 39,11 35,7 33,5 30.5,4 28,4 z m -8,14 -9,9 c -4,4 -3.9052429,10.0947 0,14 3.905243,3.9052 10,4 14,0 l 9,-9 1,-3 -2,1 -2,-1 0,-2 -10,10 c -2,2 -5,1 -6,0 -1,-1 -2,-4 0,-6 l 8,-8 1,-3 -1,-1 -3,1 0,-2 z"
       id="path4014"
       clip-path="url(#clipPath4064)"
       inkscape:connector-curvature="0" />
  </g>
  <g
     inkscape:groupmode="layer"
     id="layer3"
     inkscape:label="Layer#1">
    <rect
       ry="2.0454545"
       y="1.8000001"
       x="1.5"
       height="45"
       width="45"
       id="rect3848"
       style="opacity:0.5;fill:#000000;fill-opacity:1;stroke:none;filter:url(#filter3854)" />
    <rect
       style="fill:url(#linearGradient3811);fill-opacity:1;stroke:none"
       id="rect3030"
       width="45"
       height="45"
       x="1.5"
       y="1.5"
       ry="2.0454545" />
    <path
       style="fill:#ffffff;fill-opacity:1;stroke:none;stroke-opacity:1;opacity:0.5"
       d="M 3.53125 1.5 C 2.3980682 1.5 1.5 2.3980682 1.5 3.53125 L 1.5 5.53125 C 1.5 4.3980682 2.3980682 3.5 3.53125 3.5 L 44.46875 3.5 C 45.601932 3.5 46.5 4.3980682 46.5 5.53125 L 46.5 3.53125 C 46.5 2.3980682 45.601932 1.5 44.46875 1.5 L 3.53125 1.5 z "
       id="rect3800" />
    <path
       style="fill:#000000;fill-opacity:1;stroke:none;opacity:0.25"
       d="M 1.5 44.21875 L 1.5 44.46875 C 1.5 45.601932 2.3980682 46.5 3.53125 46.5 L 44.46875 46.5 C 45.601932 46.5 46.5 45.601932 46.5 44.46875 L 46.5 44.21875 C 46.5 45.351932 45.601932 46.25 44.46875 46.25 L 3.53125 46.25 C 2.3980682 46.25 1.5 45.351932 1.5 44.21875 z "
       id="rect3813" />
  </g>
  <g
     inkscape:label="Layer 1"
     inkscape:groupmode="layer"
     id="layer1"
     transform="translate(0,-1004.3622)"
     style="display:inline">
    <path
       style="fill:#ffffff;fill-opacity:1;stroke:none"
       d="m 31.068693,1038.4784 1.480828,-2.7941 -2.137478,0.6566 -1.807807,-1.316 0.329672,-1.9726 -11.511567,8.2148 c -2.302314,1.643 -5.096441,0.1622 -5.917926,-0.989 -0.821486,-1.1511 -1.3133,-4.2749 0.989013,-5.9179 l 9.209254,-6.5719 1.480828,-2.7941 -0.821486,-1.1512 -3.123798,0.4919 0.329671,-1.9727 -10.3604102,7.3934 c -4.6046271,3.2859 -5.5157899,9.3129 -2.3076992,13.8085 3.2081074,4.4955 9.2038684,5.5936 13.8084944,2.3077 l 10.360411,-7.3934 z"
       id="path3949"
       inkscape:connector-curvature="0" />
    <path
       style="fill:#ffffff;fill-opacity:1;stroke:none"
       d="m 29.850994,1009.5846 c -2.440798,0.5408 -4.665259,2.058 -6.185224,4.4433 l -6.839845,10.7339 0.216336,0.9763 1.736302,-1.409 3.361629,1.3037 -0.543647,2.1689 6.839845,-10.7339 c 1.519966,-2.3853 4.665258,-2.058 5.857914,-1.298 1.192655,0.76 2.817982,3.4726 1.298017,5.8579 l -6.079862,9.5413 0.649008,2.9289 2.496285,-2.6016 2.168974,0.5436 -0.543647,2.169 6.079862,-9.5412 c 3.039931,-4.7706 1.741914,-10.6286 -3.028706,-13.6685 -2.385311,-1.52 -5.042444,-1.9554 -7.483241,-1.4146 z"
       id="path2987"
       inkscape:connector-curvature="0" />
    <path
       style="fill:#ffffff;fill-opacity:1;stroke:none"
       d="m 38.485188,1034.8695 -2.984916,-1.0442 3.41734,-1.1497 1.582116,1.2235 z"
       id="rect3828"
       inkscape:connector-curvature="0"
       sodipodi:nodetypes="ccccc" />
    <path
       sodipodi:nodetypes="ccccc"
       inkscape:connector-curvature="0"
       id="path3831"
       d="m 33.920263,1038.3327 0.800149,-1.9928 2.432109,2.6618 -2.424391,1.1606 z"
       style="fill:#ffffff;fill-opacity:1;stroke:none"
       inkscape:transform-center-x="-0.536392"
       inkscape:transform-center-y="-3.1111" />
  </g>
</svg>
