<?xml version="1.0" encoding="UTF-8" standalone="no"?>
<!-- Created with Inkscape (http://www.inkscape.org/) -->

<svg
   xmlns:dc="http://purl.org/dc/elements/1.1/"
   xmlns:cc="http://creativecommons.org/ns#"
   xmlns:rdf="http://www.w3.org/1999/02/22-rdf-syntax-ns#"
   xmlns:svg="http://www.w3.org/2000/svg"
   xmlns="http://www.w3.org/2000/svg"
   xmlns:xlink="http://www.w3.org/1999/xlink"
   xmlns:sodipodi="http://sodipodi.sourceforge.net/DTD/sodipodi-0.dtd"
   xmlns:inkscape="http://www.inkscape.org/namespaces/inkscape"
   width="48"
   height="48"
   id="svg2"
   version="1.1"
   inkscape:version="0.48.4 r9939"
   enable-background="new"
   sodipodi:docname="New document 1">
  <defs
     id="defs4">
    <linearGradient
       id="linearGradient3842">
      <stop
         style="stop-color:#14769a;stop-opacity:1;"
         offset="0"
         id="stop3844" />
      <stop
         style="stop-color:#33b5e5;stop-opacity:1;"
         offset="1"
         id="stop3846" />
    </linearGradient>
    <linearGradient
       inkscape:collect="always"
       xlink:href="#linearGradient3842"
       id="linearGradient3848"
       x1="4.0354274"
       y1="23.982278"
       x2="44"
       y2="23.982278"
       gradientUnits="userSpaceOnUse" />
    <linearGradient
       inkscape:collect="always"
       xlink:href="#linearGradient3842"
       id="linearGradient3866"
       gradientUnits="userSpaceOnUse"
       x1="4.0354274"
       y1="23.982278"
       x2="44"
       y2="23.982278"
       gradientTransform="translate(-8,996.3622)" />
    <linearGradient
       inkscape:collect="always"
       xlink:href="#linearGradient3842"
       id="linearGradient3939"
       gradientUnits="userSpaceOnUse"
       x1="4.0354274"
       y1="23.982278"
       x2="44"
       y2="23.982278" />
    <linearGradient
       inkscape:collect="always"
       xlink:href="#linearGradient3842"
       id="linearGradient3944"
       gradientUnits="userSpaceOnUse"
       x1="4.0354274"
       y1="23.982278"
       x2="44"
       y2="23.982278" />
    <linearGradient
       inkscape:collect="always"
       xlink:href="#linearGradient3842"
       id="linearGradient3957"
       gradientUnits="userSpaceOnUse"
       x1="4.0354274"
       y1="23.982278"
       x2="44"
       y2="23.982278"
       gradientTransform="translate(-6,1004.3622)" />
    <linearGradient
       inkscape:collect="always"
       xlink:href="#linearGradient3842"
       id="linearGradient3959"
       gradientUnits="userSpaceOnUse"
       x1="4.0354274"
       y1="23.982278"
       x2="44"
       y2="23.982278"
       gradientTransform="translate(4,1004.3622)" />
    <linearGradient
       inkscape:collect="always"
       xlink:href="#linearGradient3842"
       id="linearGradient3965"
       gradientUnits="userSpaceOnUse"
       gradientTransform="translate(4,1000.3622)"
       x1="4.0354274"
       y1="23.982278"
       x2="44"
       y2="23.982278" />
    <linearGradient
       inkscape:collect="always"
       xlink:href="#linearGradient3842"
       id="linearGradient3967"
       gradientUnits="userSpaceOnUse"
       gradientTransform="translate(-32,1000.3622)"
       x1="4.0354274"
       y1="23.982278"
       x2="44"
       y2="23.982278" />
    <linearGradient
       inkscape:collect="always"
       xlink:href="#linearGradient3842"
       id="linearGradient3973"
       gradientUnits="userSpaceOnUse"
       gradientTransform="translate(-22,1001.3622)"
       x1="4.0354274"
       y1="23.982278"
       x2="44"
       y2="23.982278" />
    <linearGradient
       inkscape:collect="always"
       xlink:href="#linearGradient3842"
       id="linearGradient3975"
       gradientUnits="userSpaceOnUse"
       gradientTransform="translate(-32,1001.3622)"
       x1="4.0354274"
       y1="23.982278"
       x2="44"
       y2="23.982278" />
    <linearGradient
       inkscape:collect="always"
       xlink:href="#linearGradient3842"
       id="linearGradient3981"
       gradientUnits="userSpaceOnUse"
       gradientTransform="translate(-28,0)"
       x1="4.0354274"
       y1="23.982278"
       x2="44"
       y2="23.982278" />
    <linearGradient
       inkscape:collect="always"
       xlink:href="#linearGradient3842"
       id="linearGradient3983"
       gradientUnits="userSpaceOnUse"
       gradientTransform="translate(-38,0)"
       x1="4.0354274"
       y1="23.982278"
       x2="44"
       y2="23.982278" />
    <linearGradient
       inkscape:collect="always"
       xlink:href="#linearGradient3842"
       id="linearGradient3987"
       gradientUnits="userSpaceOnUse"
       gradientTransform="translate(-38,1005.3622)"
       x1="4.0354274"
       y1="23.982278"
       x2="44"
       y2="23.982278" />
    <linearGradient
       inkscape:collect="always"
       xlink:href="#linearGradient3842"
       id="linearGradient3992"
       gradientUnits="userSpaceOnUse"
       gradientTransform="translate(-28.035427,1005.3622)"
       x1="4.0354274"
       y1="23.982278"
       x2="44"
       y2="23.982278" />
    <clipPath
       clipPathUnits="userSpaceOnUse"
       id="clipPath4064">
      <path
         style="opacity:0.5;fill:#000000;fill-opacity:1;stroke:none"
         d="m 28,4 c -2.5,0 -5,1 -7,3 l -9,9 0,1 2,-1 3,2 -1,2 9,-9 c 2,-2 5,-1 6,0 1,1 2,4 0,6 l -8,8 0,3 3,-2 2,1 -1,2 8,-8 C 39,17 39,11 35,7 33,5 30.5,4 28,4 z m -8,14 -9,9 c -4,4 -3.9052429,10.0947 0,14 3.905243,3.9052 10,4 14,0 l 9,-9 1,-3 -2,1 -2,-1 0,-2 -10,10 c -2,2 -5,1 -6,0 -1,-1 -2,-4 0,-6 l 8,-8 1,-3 -1,-1 -3,1 0,-2 z"
         id="path4066"
         inkscape:connector-curvature="0" />
    </clipPath>
  </defs>
  <sodipodi:namedview
     id="base"
     pagecolor="#353751"
     bordercolor="#666666"
     borderopacity="1.0"
     inkscape:pageopacity="0"
     inkscape:pageshadow="2"
     inkscape:zoom="15.839192"
     inkscape:cx="11.749919"
     inkscape:cy="23.69962"
     inkscape:document-units="px"
     inkscape:current-layer="layer2"
     showgrid="true"
     objecttolerance="10000"
     guidetolerance="10000"
     inkscape:snap-global="true"
     inkscape:snap-page="true"
     inkscape:snap-bbox="true"
     showguides="false"
     inkscape:window-width="1920"
     inkscape:window-height="1023"
     inkscape:window-x="0"
     inkscape:window-y="33"
     inkscape:window-maximized="1">
    <inkscape:grid
       type="xygrid"
       id="grid2985"
       empspacing="8"
       visible="true"
       enabled="true"
       snapvisiblegridlinesonly="true" />
  </sodipodi:namedview>
  <metadata
     id="metadata7">
    <rdf:RDF>
      <cc:Work
         rdf:about="">
        <dc:format>image/svg+xml</dc:format>
        <dc:type
           rdf:resource="http://purl.org/dc/dcmitype/StillImage" />
        <dc:title></dc:title>
      </cc:Work>
    </rdf:RDF>
  </metadata>
  <g
     inkscape:label="Layer 1"
     inkscape:groupmode="layer"
     id="layer1"
     transform="translate(0,-1004.3622)"
     style="display:inline">
    <path
       style="fill:url(#linearGradient3959);fill-opacity:1;stroke:none"
       d="m 34,1036.3622 1,-3 -2,1 -2,-1 0,-2 -10,10 c -2,2 -5,1 -6,0 -1,-1 -2,-4 0,-6 l 8,-8 1,-3 -1,-1 -3,1 0,-2 -9,9 c -4,4 -3.9052429,10.0947 0,14 3.905243,3.9052 10,4 14,0 l 9,-9 z"
       id="path3949"
       inkscape:connector-curvature="0" />
    <path
       style="fill:url(#linearGradient3957);fill-opacity:1;stroke:none"
       d="m 28,1008.3622 c -2.5,0 -5,1 -7,3 l -9,9 0,1 2,-1 3,2 -1,2 9,-9 c 2,-2 5,-1 6,0 1,1 2,4 0,6 l -8,8 0,3 3,-2 2,1 -1,2 8,-8 c 4,-4 4,-10 0,-14 -2,-2 -4.5,-3 -7,-3 z"
       id="path2987"
       inkscape:connector-curvature="0" />
    <path
       style="opacity:0.5;fill:#ffffff;fill-opacity:1;stroke:none"
       d="m 20.01772,1022.3622 -9,9 c -2.0000001,2 -2.9805951,4.5194 -2.9687501,7.0313 0.218325,-2.172 1.203716,-4.2975 2.9375001,-6.0313 l 9,-9 0,2 3,-1 0.78125,0.7813 0.25,-0.7813 -1,-1 -3,1 0,-2 z m 11,9 -10,10 c -2,2 -5,1 -6,0 -0.526752,-0.5268 -1.036717,-1.6143 -1.125,-2.8125 -0.231707,1.5629 0.423942,3.1427 1.09375,3.8125 1,1 4,2 6,0 l 10,-10 0,2 2,1 1.625,-0.8125 0.40625,-1.1875 -2,1 -2,-1 0,-2 z"
       id="path3977"
       inkscape:connector-curvature="0" />
    <path
       style="opacity:0.5;fill:#ffffff;fill-opacity:1;stroke:none"
       d="m 28.01772,1008.3622 c -2.5,0 -5,1 -7,3 l -9,9 0,1 9,-9 c 2,-2 4.5,-3 7,-3 2.5,0 5,1 7,3 1.866703,1.8667 2.844337,4.1687 2.96875,6.5 0.14218,-2.6643 -0.835454,-5.3667 -2.96875,-7.5 -2,-2 -4.5,-3 -7,-3 z m 4.125,10.6563 c -0.09076,0.8223 -0.419809,1.6385 -1.125,2.3437 l -8,8 0,1 8,-8 c 0.991083,-0.9911 1.242227,-2.2266 1.125,-3.3437 z m -15.5,4.0937 -0.625,1.25 1,-1 -0.375,-0.25 z m 10.96875,9.0625 -0.59375,1.1875 1,-1 -0.40625,-0.1875 z"
       id="path3979"
       inkscape:connector-curvature="0" />
    <path
       style="opacity:0.2;fill:#000000;fill-opacity:1;stroke:none"
       d="m 20,1022.3622 -0.03125,0.031 0,1 0.03125,0 0,-1.0313 z m 3.75,1.75 -0.78125,2.2813 -8,8 c -1,1 -1.25,2.25 -1.125,3.375 0.08002,-0.8439 0.432208,-1.6823 1.15625,-2.4063 l 8,-8 1,-3 -0.25,-0.25 z m 7.25,7.25 -0.03125,0.031 0,1 0.03125,0.031 0,-1.0625 z m 4,2 -0.4375,0.2188 -0.59375,1.8125 -9,9 c -4,4 -10.094757,3.9052 -14,0 -1.790083,-1.7902 -2.776051,-4.0463 -2.9375,-6.3438 -0.08231,2.6268 0.926733,5.2705 2.96875,7.3125 3.905243,3.9052 10,4 14,0 l 9,-9 1,-3 z"
       id="path4003"
       inkscape:connector-curvature="0" />
    <path
       style="opacity:0.2;fill:#000000;fill-opacity:1;stroke:none"
       d="m 27.5,1013.206 c -0.873047,0.064 -1.75,0.4062 -2.5,1.1562 l -8,8 -1,2 9,-9 c 2,-2 5,-1 6,0 0.5,0.5 1,1.5 1.125,2.625 0.154755,-1.4994 -0.481922,-2.9819 -1.125,-3.625 -0.625,-0.625 -2.044922,-1.2637 -3.5,-1.1562 z m 10.46875,4.6562 c -0.124412,2.3313 -1.102046,4.6333 -2.96875,6.5 l -7,7 -1,2 8,-8 c 2.133297,-2.1333 3.11093,-4.8357 2.96875,-7.5 z m -23.96875,1.5 -2,1 0,1 2,-1 2.625,1.75 0.375,-0.75 -3,-2 z m 12,10 -3,2 0,1 3,-2 1.59375,0.8125 0.40625,-0.8125 -2,-1 z"
       id="path4005"
       inkscape:connector-curvature="0" />
  </g>
  <g
     inkscape:groupmode="layer"
     id="layer2"
     inkscape:label="Layer">
    <path
       style="opacity:0.5;fill:none;stroke:#ffffff;stroke-width:0.5;stroke-miterlimit:4;stroke-opacity:1;stroke-dasharray:none"
       d="m 28,4 c -2.5,0 -5,1 -7,3 l -9,9 0,1 2,-1 3,2 -1,2 9,-9 c 2,-2 5,-1 6,0 1,1 2,4 0,6 l -8,8 0,3 3,-2 2,1 -1,2 8,-8 C 39,17 39,11 35,7 33,5 30.5,4 28,4 z m -8,14 -9,9 c -4,4 -3.9052429,10.0947 0,14 3.905243,3.9052 10,4 14,0 l 9,-9 1,-3 -2,1 -2,-1 0,-2 -10,10 c -2,2 -5,1 -6,0 -1,-1 -2,-4 0,-6 l 8,-8 1,-3 -1,-1 -3,1 0,-2 z"
       id="path4014"
       clip-path="url(#clipPath4064)"
       inkscape:connector-curvature="0" />
  </g>
</svg>
