<?xml version="1.0" encoding="UTF-8" standalone="no"?>
<!-- Created with Inkscape (http://www.inkscape.org/) -->

<svg
   xmlns:dc="http://purl.org/dc/elements/1.1/"
   xmlns:cc="http://creativecommons.org/ns#"
   xmlns:rdf="http://www.w3.org/1999/02/22-rdf-syntax-ns#"
   xmlns:svg="http://www.w3.org/2000/svg"
   xmlns="http://www.w3.org/2000/svg"
   xmlns:xlink="http://www.w3.org/1999/xlink"
   xmlns:sodipodi="http://sodipodi.sourceforge.net/DTD/sodipodi-0.dtd"
   xmlns:inkscape="http://www.inkscape.org/namespaces/inkscape"
   width="48"
   height="48"
   id="svg2"
   version="1.1"
   inkscape:version="0.48.4 r9939"
   enable-background="new"
   sodipodi:docname="launcher.svg"
   inkscape:export-filename="/home/dave/git/Linkbasher/Linkbasher/src/main/res/drawable/_pre_production/launcher.png"
   inkscape:export-xdpi="960"
   inkscape:export-ydpi="960">
  <defs
     id="defs4">
    <linearGradient
       id="linearGradient3842">
      <stop
         style="stop-color:#0099cc;stop-opacity:1;"
         offset="0"
         id="stop3844" />
      <stop
         style="stop-color:#6dcaec;stop-opacity:1;"
         offset="1"
         id="stop3846" />
    </linearGradient>
    <linearGradient
       inkscape:collect="always"
       xlink:href="#linearGradient3842"
       id="linearGradient3848"
       x1="4.0354274"
       y1="23.982278"
       x2="44"
       y2="23.982278"
       gradientUnits="userSpaceOnUse" />
    <linearGradient
       inkscape:collect="always"
       xlink:href="#linearGradient3842"
       id="linearGradient3866"
       gradientUnits="userSpaceOnUse"
       x1="4.0354274"
       y1="23.982278"
       x2="44"
       y2="23.982278"
       gradientTransform="translate(-8,996.3622)" />
    <linearGradient
       inkscape:collect="always"
       xlink:href="#linearGradient3842"
       id="linearGradient3939"
       gradientUnits="userSpaceOnUse"
       x1="4.0354274"
       y1="23.982278"
       x2="44"
       y2="23.982278" />
    <linearGradient
       inkscape:collect="always"
       xlink:href="#linearGradient3842"
       id="linearGradient3944"
       gradientUnits="userSpaceOnUse"
       x1="4.0354274"
       y1="23.982278"
       x2="44"
       y2="23.982278" />
    <linearGradient
       inkscape:collect="always"
       xlink:href="#linearGradient3842"
       id="linearGradient3965"
       gradientUnits="userSpaceOnUse"
       gradientTransform="translate(4,1000.3622)"
       x1="4.0354274"
       y1="23.982278"
       x2="44"
       y2="23.982278" />
    <linearGradient
       inkscape:collect="always"
       xlink:href="#linearGradient3842"
       id="linearGradient3967"
       gradientUnits="userSpaceOnUse"
       gradientTransform="translate(-32,1000.3622)"
       x1="4.0354274"
       y1="23.982278"
       x2="44"
       y2="23.982278" />
    <linearGradient
       inkscape:collect="always"
       xlink:href="#linearGradient3842"
       id="linearGradient3973"
       gradientUnits="userSpaceOnUse"
       gradientTransform="translate(-22,1001.3622)"
       x1="4.0354274"
       y1="23.982278"
       x2="44"
       y2="23.982278" />
    <linearGradient
       inkscape:collect="always"
       xlink:href="#linearGradient3842"
       id="linearGradient3975"
       gradientUnits="userSpaceOnUse"
       gradientTransform="translate(-32,1001.3622)"
       x1="4.0354274"
       y1="23.982278"
       x2="44"
       y2="23.982278" />
    <linearGradient
       inkscape:collect="always"
       xlink:href="#linearGradient3842"
       id="linearGradient3981"
       gradientUnits="userSpaceOnUse"
       gradientTransform="translate(-28,0)"
       x1="4.0354274"
       y1="23.982278"
       x2="44"
       y2="23.982278" />
    <linearGradient
       inkscape:collect="always"
       xlink:href="#linearGradient3842"
       id="linearGradient3983"
       gradientUnits="userSpaceOnUse"
       gradientTransform="translate(-38,0)"
       x1="4.0354274"
       y1="23.982278"
       x2="44"
       y2="23.982278" />
    <linearGradient
       inkscape:collect="always"
       xlink:href="#linearGradient3842"
       id="linearGradient3987"
       gradientUnits="userSpaceOnUse"
       gradientTransform="translate(-38,1005.3622)"
       x1="4.0354274"
       y1="23.982278"
       x2="44"
       y2="23.982278" />
    <linearGradient
       inkscape:collect="always"
       xlink:href="#linearGradient3842"
       id="linearGradient3992"
       gradientUnits="userSpaceOnUse"
       gradientTransform="translate(-28.035427,1005.3622)"
       x1="4.0354274"
       y1="23.982278"
       x2="44"
       y2="23.982278" />
    <clipPath
       clipPathUnits="userSpaceOnUse"
       id="clipPath4064">
      <path
         style="opacity:0.5;fill:#000000;fill-opacity:1;stroke:none"
         d="m 28,4 c -2.5,0 -5,1 -7,3 l -9,9 0,1 2,-1 3,2 -1,2 9,-9 c 2,-2 5,-1 6,0 1,1 2,4 0,6 l -8,8 0,3 3,-2 2,1 -1,2 8,-8 C 39,17 39,11 35,7 33,5 30.5,4 28,4 z m -8,14 -9,9 c -4,4 -3.9052429,10.0947 0,14 3.905243,3.9052 10,4 14,0 l 9,-9 1,-3 -2,1 -2,-1 0,-2 -10,10 c -2,2 -5,1 -6,0 -1,-1 -2,-4 0,-6 l 8,-8 1,-3 -1,-1 -3,1 0,-2 z"
         id="path4066"
         inkscape:connector-curvature="0" />
    </clipPath>
    <linearGradient
       inkscape:collect="always"
       xlink:href="#linearGradient3842"
       id="linearGradient3811"
       x1="24"
       y1="46"
       x2="24"
       y2="8"
       gradientUnits="userSpaceOnUse" />
    <filter
       inkscape:collect="always"
       id="filter3854">
      <feGaussianBlur
         inkscape:collect="always"
         stdDeviation="0.225"
         id="feGaussianBlur3856" />
    </filter>
    <filter
       inkscape:collect="always"
       id="filter3865">
      <feGaussianBlur
         inkscape:collect="always"
         stdDeviation="0.32792194"
         id="feGaussianBlur3867" />
    </filter>
  </defs>
  <sodipodi:namedview
     id="base"
     pagecolor="#353751"
     bordercolor="#666666"
     borderopacity="1.0"
     inkscape:pageopacity="0"
     inkscape:pageshadow="2"
     inkscape:zoom="16"
     inkscape:cx="14.14602"
     inkscape:cy="23.079415"
     inkscape:document-units="px"
     inkscape:current-layer="layer1"
     showgrid="true"
     objecttolerance="10000"
     guidetolerance="10000"
     inkscape:snap-global="true"
     inkscape:snap-page="true"
     inkscape:snap-bbox="true"
     showguides="true"
     inkscape:window-width="1920"
     inkscape:window-height="1023"
     inkscape:window-x="0"
     inkscape:window-y="33"
     inkscape:window-maximized="1"
     inkscape:guide-bbox="true">
    <inkscape:grid
       type="xygrid"
       id="grid2985"
       empspacing="8"
       visible="true"
       enabled="true"
       snapvisiblegridlinesonly="true" />
  </sodipodi:namedview>
  <metadata
     id="metadata7">
    <rdf:RDF>
      <cc:Work
         rdf:about="">
        <dc:format>image/svg+xml</dc:format>
        <dc:type
           rdf:resource="http://purl.org/dc/dcmitype/StillImage" />
        <dc:title></dc:title>
      </cc:Work>
    </rdf:RDF>
  </metadata>
  <g
     inkscape:groupmode="layer"
     id="layer2"
     inkscape:label="Layer"
     style="display:inline">
    <path
       style="opacity:0.5;fill:none;stroke:#ffffff;stroke-width:0.5;stroke-miterlimit:4;stroke-opacity:1;stroke-dasharray:none"
       d="m 28,4 c -2.5,0 -5,1 -7,3 l -9,9 0,1 2,-1 3,2 -1,2 9,-9 c 2,-2 5,-1 6,0 1,1 2,4 0,6 l -8,8 0,3 3,-2 2,1 -1,2 8,-8 C 39,17 39,11 35,7 33,5 30.5,4 28,4 z m -8,14 -9,9 c -4,4 -3.9052429,10.0947 0,14 3.905243,3.9052 10,4 14,0 l 9,-9 1,-3 -2,1 -2,-1 0,-2 -10,10 c -2,2 -5,1 -6,0 -1,-1 -2,-4 0,-6 l 8,-8 1,-3 -1,-1 -3,1 0,-2 z"
       id="path4014"
       clip-path="url(#clipPath4064)"
       inkscape:connector-curvature="0" />
  </g>
  <g
     inkscape:groupmode="layer"
     id="layer3"
     inkscape:label="Layer#1">
    <rect
       ry="2.0454545"
       y="1.8000001"
       x="1.5"
       height="45"
       width="45"
       id="rect3848"
       style="opacity:0.5;fill:#000000;fill-opacity:1;stroke:none;filter:url(#filter3854)" />
    <rect
       style="fill:url(#linearGradient3811);fill-opacity:1;stroke:none"
       id="rect3030"
       width="45"
       height="45"
       x="1.5"
       y="1.5"
       ry="2.0454545" />
    <path
       style="fill:#ffffff;fill-opacity:1;stroke:none;stroke-opacity:1;opacity:0.5"
       d="M 3.53125 1.5 C 2.3980682 1.5 1.5 2.3980682 1.5 3.53125 L 1.5 5.53125 C 1.5 4.3980682 2.3980682 3.5 3.53125 3.5 L 44.46875 3.5 C 45.601932 3.5 46.5 4.3980682 46.5 5.53125 L 46.5 3.53125 C 46.5 2.3980682 45.601932 1.5 44.46875 1.5 L 3.53125 1.5 z "
       id="rect3800" />
    <path
       style="fill:#000000;fill-opacity:1;stroke:none;opacity:0.25"
       d="M 1.5 44.21875 L 1.5 44.46875 C 1.5 45.601932 2.3980682 46.5 3.53125 46.5 L 44.46875 46.5 C 45.601932 46.5 46.5 45.601932 46.5 44.46875 L 46.5 44.21875 C 46.5 45.351932 45.601932 46.25 44.46875 46.25 L 3.53125 46.25 C 2.3980682 46.25 1.5 45.351932 1.5 44.21875 z "
       id="rect3813" />
  </g>
  <g
     inkscape:label="Layer 1"
     inkscape:groupmode="layer"
     id="layer1"
     transform="translate(0,-1004.3622)"
     style="display:inline">
    <path
       id="path3859"
       d="m 31,1011.9872 c -0.547658,0.01 -1.094229,0.07 -1.625,0.1875 -2.123084,0.4704 -4.052885,1.8002 -5.375,3.875 l -5.5,8.625 -7.09375,5.0625 c -4.0052534,2.8582 -4.7905012,8.0895 -2,12 2.790515,3.9103 7.994748,4.8581 12,2 l 9.03125,-6.4375 1.28125,-2.4062 -1.875,0.5625 -1.5625,-1.1563 0.28125,-1.7187 -10,7.1562 c -2.002626,1.4292 -4.441696,0.1576 -5.15625,-0.8437 -0.714555,-1.0013 -1.127626,-3.7272 0.875,-5.1563 l 8,-5.7187 0.4375,-0.8438 5.40625,-8.5 c 1.322116,-2.0748 4.056339,-1.7861 5.09375,-1.125 1.037409,0.661 2.478364,3.019 1.15625,5.0938 l -5.3125,8.3125 0.5625,2.5625 2.1875,-2.2813 1.875,0.4688 -0.46875,1.9062 5.28125,-8.3125 c 2.644229,-4.1497 1.524639,-9.2308 -2.625,-11.875 -1.556115,-0.9916 -3.232025,-1.4675 -4.875,-1.4375 z m 6.25,20.2813 -2.96875,1 2.59375,0.9062 1.75,-0.8437 -1.375,-1.0625 z m -3.65625,3.1875 -0.6875,1.7187 0.6875,1.5938 2.125,-1 -2.125,-2.3125 z"
       style="opacity:0.25;fill:#000000;fill-opacity:1;stroke:none;filter:url(#filter3865)"
       inkscape:connector-curvature="0" />
    <path
       style="fill:#ffffff;fill-opacity:1;stroke:none"
       d="M 31 7.25 C 30.452342 7.2599875 29.905771 7.3199 29.375 7.4375 C 27.251916 7.9079 25.322115 9.2377 24 11.3125 L 18.5 19.9375 L 11.40625 25 C 7.4009966 27.8582 6.6157488 33.0895 9.40625 37 C 12.196765 40.9103 17.400998 41.8581 21.40625 39 L 30.4375 32.5625 L 31.71875 30.15625 L 29.84375 30.71875 L 28.28125 29.5625 L 28.5625 27.84375 L 18.5625 35 C 16.559874 36.4292 14.120804 35.15755 13.40625 34.15625 C 12.691695 33.15495 12.278624 30.4291 14.28125 29 L 22.28125 23.28125 L 22.71875 22.4375 L 28.125 13.9375 C 29.447116 11.8627 32.181339 12.1514 33.21875 12.8125 C 34.256159 13.4735 35.697114 15.83145 34.375 17.90625 L 29.0625 26.21875 L 29.625 28.78125 L 31.8125 26.5 L 33.6875 26.96875 L 33.21875 28.875 L 38.5 20.5625 C 41.144229 16.4128 40.024639 11.3317 35.875 8.6875 C 34.318885 7.69585 32.642975 7.2200375 31 7.25 z M 37.25 27.53125 L 34.28125 28.53125 L 36.875 29.4375 L 38.625 28.59375 L 37.25 27.53125 z M 33.59375 30.71875 L 32.90625 32.4375 L 33.59375 34.03125 L 35.71875 33.03125 L 33.59375 30.71875 z "
       transform="translate(0,1004.3622)"
       id="path3949" />
  </g>
</svg>
